# xmcd
#
# Track frame offsets: 
#        182
#        8710
#        23962
#        37857
#        52505
#        66382
#        74305
#        87490
#        100797
#        112937
#        125802
#        149972
#        166652
#        185515
#        203845
#        219230
#        237937
#
# Disc length: 3401 seconds
#
# Revision: 21
# Processed by: cddbd v1.5.2PL0 Copyright (c) Steve Scherf et al.
# Submitted via: ExactAudioCopy v1.3
#
DISCID=e90d4711
DTITLE=Blues Brothers - Blues Brothers - CD1
DYEAR=1998
DGENRE=Blues
TTITLE0=Opening - I Can't Turn You Loose
TTITLE1=Everybody Needs Somebody To Love
TTITLE2=Gimme Some Lovin'
TTITLE3=Think
TTITLE4=Soul Man
TTITLE5=Soul Finger
TTITLE6=Messin' With The Kid
TTITLE7=Hey Bartender
TTITLE8=(I Got Every Thing I Need) Almost
TTITLE9=Rubber Biscuit
TTITLE10=Shot Gun Blues
TTITLE11=Groove Me
TTITLE12=I Don't Know
TTITLE13=''B'' Movie Box Car Blues
TTITLE14=Flip Flop And Fly
TTITLE15=She Caught The Katy
TTITLE16=Peter Gunn Theme
EXTD=YEAR: 2000
EXTT0=
EXTT1=
EXTT2=
EXTT3=
EXTT4=
EXTT5=
EXTT6=
EXTT7=
EXTT8=
EXTT9=
EXTT10=
EXTT11=
EXTT12=
EXTT13=
EXTT14=
EXTT15=
EXTT16=
PLAYORDER=
